<svg xmlns="http://www.w3.org/2000/svg" width="16.001" height="15.915" viewBox="0 0 16.001 15.915">
  <path id="Path_32" data-name="Path 32" d="M5.972-14h-12a2,2,0,0,0-2,1.972v8.972a1.98,1.98,0,0,0,2,1.972h3V1.54a.377.377,0,0,0,.6.3l3.9-2.927h4.5a2,2,0,0,0,2-1.972v-8.972A1.982,1.982,0,0,0,5.972-14Zm-6.5,7.25A2.223,2.223,0,0,1-2.75-4.528.725.725,0,0,1-3.5-5.25.75.75,0,0,1-2.75-6,.752.752,0,0,0-2-6.75v-.275A1.7,1.7,0,0,1-2.278-7a1.744,1.744,0,0,1-1.75-1.722,1.744,1.744,0,0,1,1.75-1.722A1.7,1.7,0,0,1-.528-8.75Zm4.5,0a2.229,2.229,0,0,1-2.25,2.222A.718.718,0,0,1,1-5.25.75.75,0,0,1,1.75-6a.751.751,0,0,0,.75-.75v-.275A1.735,1.735,0,0,1,2.25-7,1.744,1.744,0,0,1,.5-8.722a1.744,1.744,0,0,1,1.75-1.722A1.744,1.744,0,0,1,4-8.722Z" transform="translate(8.028 14)" fill="#ee384e"/>
</svg>
