<svg xmlns="http://www.w3.org/2000/svg" width="31" height="31" viewBox="0 0 31 31">
    <path id="Exclusion_1" data-name="Exclusion 1"
          d="M-631.5-33a15.4,15.4,0,0,1-10.96-4.54A15.4,15.4,0,0,1-647-48.5a15.4,15.4,0,0,1,4.54-10.96A15.4,15.4,0,0,1-631.5-64a15.4,15.4,0,0,1,10.961,4.54A15.4,15.4,0,0,1-616-48.5a15.4,15.4,0,0,1-4.54,10.96A15.4,15.4,0,0,1-631.5-33Zm-3.667-21.774-3.315,12.6a.538.538,0,0,0,.142.52.536.536,0,0,0,.378.155.535.535,0,0,0,.143-.019l12.586-3.49c-.141-5.777-4.132-9.7-9.933-9.766Zm1.834-3.725a1.1,1.1,0,0,0-1.066.806l-.491,1.868a11.032,11.032,0,0,1,7.592,3.01,10.946,10.946,0,0,1,3.116,7.516l1.891-.524a1.093,1.093,0,0,0,.785-1.193,13.261,13.261,0,0,0-11.719-11.479C-633.261-58.5-633.3-58.5-633.334-58.5Zm-.917,13.814a1.064,1.064,0,0,1-1.063-1.063,1.064,1.064,0,0,1,1.063-1.062,1.064,1.064,0,0,1,1.063,1.062A1.064,1.064,0,0,1-634.251-44.686Zm5.047-1.594a1.064,1.064,0,0,1-1.062-1.063A1.063,1.063,0,0,1-629.2-48.4a1.064,1.064,0,0,1,1.063,1.062A1.064,1.064,0,0,1-629.2-46.28Zm-3.453-3.453A1.064,1.064,0,0,1-633.72-50.8a1.064,1.064,0,0,1,1.063-1.063,1.064,1.064,0,0,1,1.063,1.063A1.064,1.064,0,0,1-632.657-49.733Z"
          transform="translate(647 64)" fill="#ee384e"/>
</svg>
