<svg xmlns="http://www.w3.org/2000/svg" width="20.313" height="18.06" viewBox="0 0 20.313 18.06">
  <path id="fork-knife" d="M5.4,11.373,1.916,7.9A6.515,6.515,0,0,1,.535.723,1.129,1.129,0,0,1,2.37.37L9.386,7.384ZM17.653,15.69a1.412,1.412,0,0,1-2,2l-4.694-4.694,2-2ZM20.08,3.348a.491.491,0,0,1,.233.347.539.539,0,0,1-.081.4L17.59,8.245a3.016,3.016,0,0,1-2.233,1.428,3.256,3.256,0,0,1-2.13-.543L4.674,17.683a1.413,1.413,0,0,1-2,0,1.342,1.342,0,0,1,0-2L11.23,7.13A3.225,3.225,0,0,1,10.687,5a3.01,3.01,0,0,1,1.428-2.231L16.27.128a.562.562,0,0,1,.4-.081.551.551,0,0,1,.346.2.513.513,0,0,1,.123.384A.484.484,0,0,1,16.941,1L13.382,4.6l.434.434L17.935,1.76a.472.472,0,0,1,.321-.1.475.475,0,0,1,.346.77L15.332,6.545l.434.434,3.59-3.587a.568.568,0,0,1,.37-.164.446.446,0,0,1,.353.123Z" transform="translate(-0.008 -0.039)" fill="#fff"/>
</svg>
