<svg xmlns="http://www.w3.org/2000/svg" width="17.001" height="17.001" viewBox="0 0 17.001 17.001">
  <path id="Icon_awesome-pizza-slice" data-name="Icon awesome-pizza-slice" d="M5.276,0A1.1,1.1,0,0,0,4.1.806L3.611,2.674C9.841,2.857,14.056,7.012,14.32,13.2l1.891-.524a1.1,1.1,0,0,0,.784-1.192A13.2,13.2,0,0,0,5.276,0ZM3.335,3.724.019,16.326a.538.538,0,0,0,.664.656l12.585-3.49c-.142-5.808-4.087-9.7-9.934-9.766Zm.917,10.09a1.063,1.063,0,1,1,1.063-1.063A1.063,1.063,0,0,1,4.251,13.814ZM5.845,8.767A1.063,1.063,0,1,1,6.908,7.7,1.063,1.063,0,0,1,5.845,8.767ZM9.3,12.22a1.063,1.063,0,1,1,1.063-1.063A1.063,1.063,0,0,1,9.3,12.22Z" transform="translate(-0.001 0)" fill="#fff"/>
</svg>
