<svg xmlns="http://www.w3.org/2000/svg" viewBox="0 0 292.46 374.58">
    <defs>
        <style>.cls-1{fill:red;fill-rule:evenodd;}</style>
    </defs>
    <title>logo</title>
    <g id="Layer_2" data-name="Layer 2">
        <g id="Layer_1-2" data-name="Layer 1">
            <path class="cls-1"
                  d="M239,131.1l-6.83,7.81a135.86,135.86,0,0,1-1.43,211.63l6.83,7.81A146.24,146.24,0,0,0,239,131.1ZM63.92,89.32v33A232.47,232.47,0,0,1,145,107.76c32.15,0,61.5,6.65,83.9,15.66v-33C206.54,81.41,177.18,76,145,76,114.21,76,85.94,81,63.92,89.32Zm-.56-6.25c20.19-9.48,49.83-15.47,82.87-15.47s62.9,6,83.09,15.57a36,36,0,1,0-39.5-60.07,52.3,52.3,0,0,0-86.78,0,36,36,0,1,0-39.68,60Zm-53,161.08A135.6,135.6,0,0,1,61.06,138.3l-7.37-7.37a146.22,146.22,0,0,0,1.54,227.68l7.1-7.1H63A135.63,135.63,0,0,1,10.37,244.15Zm266.29,0A130.43,130.43,0,1,0,146.23,374.58,130.44,130.44,0,0,0,276.66,244.15ZM146.23,365.33A121.18,121.18,0,1,1,267.41,244.15,121.18,121.18,0,0,1,146.23,365.33ZM78.63,330H226.16v-7.16H78.63Zm37.72-97.5a51.22,51.22,0,0,0-3.52-4.3c-1.82-1.93-6.36-3-6.36-7.15s1.82-24.31,2.38-29.43,2.09-18.29,3.18-18.29.37,18.24.4,23.46-.69,13.92.4,13.92,2-14.77,2-19.09.49-19.08,2-19.08,1.59,15.58,1.59,19.08,0,18.69,1.19,18.69c.29,0,.58-.85.85-2.22A126.43,126.43,0,0,0,122,190.47c0-5.38-.17-17.5,1.19-17.5s2,14.8,2,20.28-.44,17.9,1.19,17.9,1.19-16.09,1.19-21.08,0-16.7.8-16.7,3.58,18.9,3.58,29,.39,16.65.39,18.29.37,4.85-4.77,7.16-4.14,3.66-4.77,4.37l0,0,3.15,85.06H153L156.1,233c-8.54-2.52-15-15.42-15-31,0-17.35,8.1-31.41,18.09-31.41s18.1,14.06,18.1,31.41c0,15.35-6.35,28.13-14.73,30.86l3.12,84.46h58.13l-44.11-58a55.88,55.88,0,0,0-.42-108.81v-.22H78.63v167h34.58Z"/>
        </g>
    </g>
</svg>