<svg xmlns="http://www.w3.org/2000/svg" viewBox="0 0 80.3 27.56">
    <defs>
        <style>.cls-1{fill:#000;}</style>
    </defs>
    <title>logotype</title>
    <g id="Layer_2" data-name="Layer 2">
        <g id="Layer_1-2" data-name="Layer 1">
            <path class="cls-1"
                  d="M1.17,22.36C.43,22.18,0,21.94,0,21.63s.27-.51.94-.59l.38,0,.78,0a5.64,5.64,0,0,0,2.38-.75,5.67,5.67,0,0,0,1.6-1.42,4.62,4.62,0,0,0,.84-1.63,10.88,10.88,0,0,0,.41-3.29,6,6,0,0,0-.5-2.21,9.74,9.74,0,0,0-.89-1.55,6.07,6.07,0,0,1-.73-1.33,4,4,0,0,1,3.29-.1,5.07,5.07,0,0,1,2.08,2.53,8.26,8.26,0,0,1,.81,3.59,6.76,6.76,0,0,1-.66,3,7.59,7.59,0,0,1-2.83,3,10.47,10.47,0,0,1-3.63,1.39A8.41,8.41,0,0,1,1.17,22.36Z"/>
            <path class="cls-1"
                  d="M17.74,27.56h-.27a4.58,4.58,0,0,1-.76-.1h-.08a5.28,5.28,0,0,1-.87-.16l-.7-.38a10.4,10.4,0,0,1,1.09-2c.21-.33.42-.67.62-1l.35-.58c.23-.4.46-.81.68-1.23a6.5,6.5,0,0,0,.49-1.31,5.45,5.45,0,0,1-5.78-5.4,5.33,5.33,0,0,1,1-3.14,5,5,0,0,1,2.88-1.93,4.87,4.87,0,0,1,1.34-.17,8.45,8.45,0,0,1,3.09.68,4.64,4.64,0,0,1,2.84,4.64c0,.1,0,.46,0,1.06A11.51,11.51,0,0,1,23,19.15h.45a7.42,7.42,0,0,0,3-.63,4.2,4.2,0,0,0,2.16-2.62A8.19,8.19,0,0,1,25.56,15a4.88,4.88,0,0,1-2.15-2.25A4.79,4.79,0,0,1,23,10.8c0-.15,0-.45.07-.92a4.31,4.31,0,0,1,.7-1.74A5.1,5.1,0,0,1,26.3,6.07a5.37,5.37,0,0,1,1.79-.32,7.85,7.85,0,0,1,1.8.28,4.58,4.58,0,0,1,2.26,1.62,6.41,6.41,0,0,1,1.3,4.22A8.78,8.78,0,0,1,32,17.07,8.07,8.07,0,0,1,28,20a13.47,13.47,0,0,1-4.56.76l-.94,0a31.15,31.15,0,0,1-2.29,4.56,10.31,10.31,0,0,1-1.55,2.14A4.4,4.4,0,0,1,17.74,27.56Zm1.39-8.93a4.72,4.72,0,0,0,.79-2.91A8.13,8.13,0,0,0,19.71,14a3.27,3.27,0,0,0-.81-1.58,1.16,1.16,0,0,0-.85-.4c-.7,0-1.21.48-1.51,1.44A5,5,0,0,0,16.32,15c0,.2,0,.54.07,1a3.21,3.21,0,0,0,.73,1.61A2.71,2.71,0,0,0,19.13,18.63ZM28.07,4.72a2,2,0,0,1-1.94-1.31,2.52,2.52,0,0,1-.23-1.07A3,3,0,0,1,26,1.63,2.25,2.25,0,0,1,27.12.28,2.3,2.3,0,0,1,28.21,0a3.69,3.69,0,0,1,.95.18c.41.12.78.56,1.1,1.32a2.62,2.62,0,0,1,.18,1,4,4,0,0,1-.15.94,1.82,1.82,0,0,1-1,1A3,3,0,0,1,28.07,4.72Zm.72,9.83c.65-.5,1-1.59,1-3.27a7.25,7.25,0,0,0-.54-2.88c-.3-.68-.67-1-1.1-1s-.86.58-1.3,1.73a4.15,4.15,0,0,0-.25,1.46v.37a5.43,5.43,0,0,0,.69,2.29A2.66,2.66,0,0,0,28.79,14.55Z"/>
            <path class="cls-1"
                  d="M34.7,25.72a4.72,4.72,0,0,1-1.73-.4l-.42-.21-.23-.2a54.51,54.51,0,0,0,3.18-7.12,21.39,21.39,0,0,0,1.24-4.71A1.47,1.47,0,0,1,38,12.53a4.92,4.92,0,0,1,1.53.26,4.2,4.2,0,0,1,1.2.57l-.14.65a6.36,6.36,0,0,0-.06.87,6.89,6.89,0,0,0,.48,2.5,3.23,3.23,0,0,0,1.21,1.49,1.8,1.8,0,0,0,.95.28,2.58,2.58,0,0,0,.78-.18c.34-.13.67-.56,1-1.32a12.53,12.53,0,0,0,.68-3.12q.12-1.33.12-2.31v-.33a5.69,5.69,0,0,1,1.69-.3,4,4,0,0,1,1.28.26c.49.19.74.77.78,1.76l0,.38a6.28,6.28,0,0,0,.6,3,5.07,5.07,0,0,0,1.42,1.68,2.34,2.34,0,0,0,1.43.48.78.78,0,0,1,.58.24.82.82,0,0,1,0,1.14.78.78,0,0,1-.58.24h0a6,6,0,0,1-2.81-.66,7,7,0,0,1-2.33-1.92,6.52,6.52,0,0,1-2.83,2.17,6,6,0,0,1-2.1.4,9.64,9.64,0,0,1-1.59-.2A4.67,4.67,0,0,1,39,19.21a38,38,0,0,1-1.73,4,7.46,7.46,0,0,1-1.48,2.22A1.61,1.61,0,0,1,34.7,25.72Zm8.1,1.18a2,2,0,0,1-1.94-1.31,2.67,2.67,0,0,1-.23-1.07,2.94,2.94,0,0,1,.09-.71,2.16,2.16,0,0,1,1.14-1.35A2.3,2.3,0,0,1,43,22.18a4.06,4.06,0,0,1,.95.17c.41.12.78.56,1.1,1.32a2.72,2.72,0,0,1,.18,1,3.59,3.59,0,0,1-.16.94,1.75,1.75,0,0,1-1,1A2.87,2.87,0,0,1,42.8,26.9Z"/>
            <path class="cls-1"
                  d="M52.84,20.77h0a.81.81,0,0,1-.57-1.39.81.81,0,0,1,.57-.23,9.8,9.8,0,0,0,3.05-.55,9.86,9.86,0,0,0,2.89-1.52,5.62,5.62,0,0,0,1.85-2.37,4.4,4.4,0,0,0,.29-2.77,2.33,2.33,0,0,0-1.44-1.51,5.2,5.2,0,0,0-2.69-.17h0a10.28,10.28,0,0,1-1.78.21,1.54,1.54,0,0,1-1-.36.59.59,0,0,1-.15-.77c.16-.28.62-.5,1.4-.66a13.55,13.55,0,0,1,3.49-.16,10.25,10.25,0,0,1,3.26.77,5.25,5.25,0,0,1,2.28,1.77,3.86,3.86,0,0,1,.56,2.84,16.32,16.32,0,0,0-.11,2.33,3.53,3.53,0,0,0,.61,2,2.54,2.54,0,0,0,2.13.88.81.81,0,0,1,.57.23.82.82,0,0,1-.57,1.39h0a10.93,10.93,0,0,1-3.7-.63,6.46,6.46,0,0,1-2.38-1.47A12.81,12.81,0,0,1,58.47,20a14.39,14.39,0,0,1-4.72.78Zm6.21,2a2.33,2.33,0,0,1,0,3.37,2.36,2.36,0,0,1-1.72.7,2.39,2.39,0,0,1-1.74-.7,2.35,2.35,0,0,1,0-3.37,2.39,2.39,0,0,1,1.74-.7A2.36,2.36,0,0,1,59.05,22.73Z"/>
            <path class="cls-1"
                  d="M69.52,5a2.28,2.28,0,0,1,.72,1.69,2.24,2.24,0,0,1-.72,1.68,2.36,2.36,0,0,1-1.72.7,2.39,2.39,0,0,1-1.74-.7,2.24,2.24,0,0,1-.72-1.68A2.28,2.28,0,0,1,66.06,5a2.43,2.43,0,0,1,1.74-.7A2.4,2.4,0,0,1,69.52,5Zm-2.4,15.76h0a.82.82,0,0,1-.8-.8.78.78,0,0,1,.23-.57.83.83,0,0,1,.57-.24h.12a1.25,1.25,0,0,0,1.09-.48,2.26,2.26,0,0,0,.4-1.21,6.56,6.56,0,0,0-.06-1.52,14.59,14.59,0,0,0-.29-1.49c-.12-.45-.23-.81-.32-1.06-.18-.5-.34-.94-.49-1.33-.25-.61-.36-1-.31-1.05a2.66,2.66,0,0,1,2.69.26,3.74,3.74,0,0,1,1,1.22,7.83,7.83,0,0,1,.74,1.91,7.62,7.62,0,0,1,.26,2.18,5.13,5.13,0,0,1-.46,2.05,3.57,3.57,0,0,1-1.4,1.54,5,5,0,0,1-2.61.59Z"/>
            <path class="cls-1"
                  d="M71.63,24.86c.31-.64.82-1.79,1.51-3.47s1.37-3.35,2-5,1-2.75,1.19-3.31a1.39,1.39,0,0,1,1.17-.54,4.31,4.31,0,0,1,1.58.24,4.41,4.41,0,0,1,1.21.58,74.32,74.32,0,0,1-2.58,7.17,34,34,0,0,1-2.53,5.15,3.53,3.53,0,0,1-1.81-.06A5,5,0,0,1,71.63,24.86Z"/>
        </g>
    </g>
</svg>