<svg xmlns="http://www.w3.org/2000/svg" width="31" height="31" viewBox="0 0 31 31">
  <g id="Group_25" data-name="Group 25" transform="translate(-359 -771.5)">
    <circle id="Ellipse_3" data-name="Ellipse 3" cx="15.5" cy="15.5" r="15.5" transform="translate(359 771.5)" fill="#ee384e"/>
    <path id="Icon_awesome-percentage" data-name="Icon awesome-percentage" d="M4.049,8.549a2.372,2.372,0,1,0-3.355,0A2.373,2.373,0,0,0,4.049,8.549Zm9.489,6.134a2.372,2.372,0,1,0,0,3.355A2.373,2.373,0,0,0,13.539,14.684Zm-.072-8.578-.838-.838a1.186,1.186,0,0,0-1.677,0L.767,15.451a1.186,1.186,0,0,0,0,1.677l.838.838a1.186,1.186,0,0,0,1.677,0L13.467,7.783A1.186,1.186,0,0,0,13.467,6.105Z" transform="translate(367.383 775.383)" fill="#fff"/>
  </g>
</svg>
