<svg xmlns="http://www.w3.org/2000/svg" width="18" height="21" viewBox="0 0 18 21">
  <path id="receipt" d="M7.167,4.738a2,2,0,0,0-2,2V21.351L6.85,20.79a1,1,0,0,1,.688.02l2.129.851L11.8,20.81a1,1,0,0,1,.743,0l2.129.851L16.8,20.81a1,1,0,0,1,.688-.02l1.684.561V6.738a2,2,0,0,0-2-2Zm-4,2a4,4,0,0,1,4-4h10a4,4,0,0,1,4,4v16a1,1,0,0,1-1.316.949L17.2,22.8l-2.16.864a1,1,0,0,1-.743,0l-2.129-.851-2.129.851a1,1,0,0,1-.743,0L7.135,22.8l-2.652.884a1,1,0,0,1-1.316-.949Zm5,3a1,1,0,0,1,1-1h6a1,1,0,0,1,0,2h-6A1,1,0,0,1,8.167,9.738Zm0,6a1,1,0,0,1,1-1h6a1,1,0,0,1,0,2h-6A1,1,0,0,1,8.167,15.738Z" transform="translate(-3.167 -2.738)" fill="#444" fill-rule="evenodd"/>
</svg>
